HIERARCHY
ROOT joint_Root
{
	OFFSET 0.0 0.0 0.0
	CHANNELS 6 Xposition Yposition Zposition Zrotation Xrotation Yrotation 
	JOINT Hips
	{
		OFFSET -0.726466 93.3139 -2.00062
		CHANNELS 6 Xposition Yposition Zposition Zrotation Xrotation Yrotation 
		JOINT Spine
		{
			OFFSET 15.7357 0.0 0.0
			CHANNELS 6 Xposition Yposition Zposition Zrotation Xrotation Yrotation 
			JOINT Chest
			{
				OFFSET 8.98455 -0.406207 0.0
				CHANNELS 6 Xposition Yposition Zposition Zrotation Xrotation Yrotation 
				JOINT Neck
				{
					OFFSET 16.3773 0.0 0.0
					CHANNELS 6 Xposition Yposition Zposition Zrotation Xrotation Yrotation 
					JOINT Head
					{
						OFFSET 6.45672 0.0 0.0
						CHANNELS 6 Xposition Yposition Zposition Zrotation Xrotation Yrotation 
						End Site
						{
							OFFSET 0.0 0.0 0.0
						}
					}
				}
				JOINT Shoulder_L
				{
					OFFSET 12.9942 -0.242716 4.98039
					CHANNELS 6 Xposition Yposition Zposition Zrotation Xrotation Yrotation 
					JOINT UpperArm_L
					{
						OFFSET 5.34809 0.0 0.0
						CHANNELS 6 Xposition Yposition Zposition Zrotation Xrotation Yrotation 
						JOINT LowerArm_L
						{
							OFFSET 24.3286 1.87007e-05 0.0
							CHANNELS 6 Xposition Yposition Zposition Zrotation Xrotation Yrotation 
							JOINT Hand_L
							{
								OFFSET 22.2916 0.0 0.0
								CHANNELS 6 Xposition Yposition Zposition Zrotation Xrotation Yrotation 
								End Site
								{
									OFFSET 0.0 0.0 0.0
								}
							}
						}
					}
				}
				JOINT Shoulder_R
				{
					OFFSET 12.9945 -0.242716 -4.98039
					CHANNELS 6 Xposition Yposition Zposition Zrotation Xrotation Yrotation 
					JOINT UpperArm_R
					{
						OFFSET -5.34813 0.0 0.0
						CHANNELS 6 Xposition Yposition Zposition Zrotation Xrotation Yrotation 
						JOINT LowerArm_R
						{
							OFFSET -24.3289 0.000322201 0.0
							CHANNELS 6 Xposition Yposition Zposition Zrotation Xrotation Yrotation 
							JOINT Hand_R
							{
								OFFSET -22.2915 -0.000108084 0.0
								CHANNELS 6 Xposition Yposition Zposition Zrotation Xrotation Yrotation 
								End Site
								{
									OFFSET 0.0 0.0 0.0
								}
							}
						}
					}
				}
			}
		}
		JOINT UpperLeg_L
		{
			OFFSET -2.19248 -6.46944 0.0
			CHANNELS 6 Xposition Yposition Zposition Zrotation Xrotation Yrotation 
			JOINT LowerLeg_L
			{
				OFFSET 39.0811 0.0 -1.23785e-05
				CHANNELS 6 Xposition Yposition Zposition Zrotation Xrotation Yrotation 
				JOINT Foot_L
				{
					OFFSET 40.9854 0.0 -1.26872e-05
					CHANNELS 6 Xposition Yposition Zposition Zrotation Xrotation Yrotation 
					JOINT Toes_L
					{
						OFFSET 11.7543 0.0 0.0
						CHANNELS 6 Xposition Yposition Zposition Zrotation Xrotation Yrotation 
						End Site
						{
							OFFSET 0.0 0.0 0.0
						}
					}
				}
			}
		}
		JOINT UpperLeg_R
		{
			OFFSET -2.19251 6.46944 0.0
			CHANNELS 6 Xposition Yposition Zposition Zrotation Xrotation Yrotation 
			JOINT LowerLeg_R
			{
				OFFSET -39.0811 -0.00228153 -0.0401928
				CHANNELS 6 Xposition Yposition Zposition Zrotation Xrotation Yrotation 
				JOINT Foot_R
				{
					OFFSET -40.9854 0.0 0.0
					CHANNELS 6 Xposition Yposition Zposition Zrotation Xrotation Yrotation 
					JOINT Toes_R
					{
						OFFSET -11.7543 0.0 0.0
						CHANNELS 6 Xposition Yposition Zposition Zrotation Xrotation Yrotation 
						End Site
						{
							OFFSET 0.0 0.0 0.0
						}
					}
				}
			}
		}
	}
}
MOTION
Frames:	8
Frame Time:	0.0333333
0.000000 0.000000 0.000000 0.000000 0.000000 -0.000000 -1.332050 91.957500 -0.475788 88.137700 -1.127810 3.533170 15.735700 0.000005 -0.000001 69.522500 86.385800 -66.516500 8.984550 -0.406207 -0.000000 -0.914954 -2.755810 5.988560 16.377300 -0.000001 -0.000001 1.252700 0.436600 -3.420400 6.456720 -0.000001 -0.000000 1.620150 0.243668 -1.461450 12.994200 -0.242716 4.980390 -84.351900 -11.061500 -62.730500 5.348090 -0.000007 -0.000001 -53.198300 -56.464700 -85.526400 24.328600 0.000019 0.000005 -5.734410 -4.182930 -54.006900 22.291600 -0.000001 0.000005 19.401400 5.672200 -17.741100 12.994500 -0.242716 -4.980390 91.169600 -3.473750 -71.378800 -5.348130 -0.000001 -0.000004 -70.231800 79.368300 20.684000 -24.328900 0.000322 -0.000009 22.934500 2.702280 -83.643100 -22.291500 -0.000108 -0.000004 47.191500 5.674490 -24.079800 -2.192480 -6.469440 -0.000000 -170.221000 -18.242500 -3.295320 39.081100 -0.000007 -0.000012 -0.137052 0.316189 23.434400 40.985400 -0.000006 -0.000013 -5.460710 0.659375 -64.607700 11.754300 -0.000000 0.000003 -0.000062 -0.000679 -16.603800 -2.192510 6.469440 -0.000001 175.522000 23.389400 177.477000 -39.081100 -0.002282 -0.040193 0.038513 -0.082471 23.111700 -40.985400 0.000008 0.000006 0.706814 2.594920 -65.034000 -11.754300 -0.000006 -0.000006 -0.005986 -0.070710 -19.450900
0.000000 0.000000 0.000000 0.000000 0.000000 -0.000000 -1.314610 91.948400 -0.555216 88.152300 -1.285280 3.571200 15.735700 0.000005 -0.000001 70.281800 86.371100 -67.280400 8.984550 -0.406207 -0.000000 -0.856702 -2.673880 5.980920 16.377300 -0.000001 -0.000001 1.263390 0.436720 -3.448500 6.456720 -0.000001 -0.000000 1.514480 0.195695 -1.553840 12.994200 -0.242716 4.980390 -84.343900 -11.083800 -62.743500 5.348090 -0.000007 -0.000001 -53.187900 -56.535900 -85.406300 24.328600 0.000019 0.000005 -5.697980 -4.165710 -53.944400 22.291600 -0.000001 0.000005 19.422200 5.672030 -17.712000 12.994500 -0.242716 -4.980390 91.165800 -3.463880 -71.385100 -5.348130 -0.000001 -0.000004 -70.317300 79.331300 20.821700 -24.328900 0.000322 -0.000009 22.973800 2.699670 -83.661100 -22.291500 -0.000108 -0.000004 47.241800 5.674710 -24.034600 -2.192480 -6.469440 -0.000000 -170.261000 -18.280700 -3.343560 39.081100 -0.000007 -0.000012 -0.134822 0.309414 23.544600 40.985400 -0.000006 -0.000013 -5.462680 0.490730 -64.629800 11.754300 -0.000000 0.000003 -0.000055 -0.000611 -16.601200 -2.192510 6.469440 -0.000001 175.512000 23.258100 177.430000 -39.081100 -0.002282 -0.040193 0.038351 -0.082002 23.134700 -40.985400 0.000008 0.000006 0.683547 2.659980 -65.064500 -11.754300 -0.000006 -0.000006 -0.005673 -0.067836 -19.333700
0.000000 0.000000 0.000000 0.000000 0.000000 -0.000000 -1.312060 91.962700 -0.636810 88.157500 -1.430440 3.564100 15.735700 0.000005 -0.000001 70.599500 86.359300 -67.617000 8.984550 -0.406207 -0.000000 -0.822311 -2.641490 5.944300 16.377300 -0.000001 -0.000001 1.272650 0.474232 -3.479410 6.456720 -0.000001 -0.000000 1.423260 0.208544 -1.532210 12.994200 -0.242716 4.980390 -84.329500 -11.068400 -62.651800 5.348090 -0.000007 -0.000001 -53.105400 -56.645100 -85.360400 24.328600 0.000019 0.000005 -5.615630 -4.120000 -53.845100 22.291600 -0.000001 0.000005 19.345300 5.671770 -17.667800 12.994500 -0.242716 -4.980390 91.121000 -3.329880 -71.382300 -5.348130 -0.000001 -0.000004 -69.983500 79.378300 20.669600 -24.328900 0.000322 -0.000009 22.978300 2.648710 -83.781100 -22.291500 -0.000108 -0.000004 47.260900 5.675310 -23.914100 -2.192480 -6.469440 -0.000000 -170.284000 -18.265400 -3.337320 39.081100 -0.000007 -0.000012 -0.137927 0.317723 23.466300 40.985400 -0.000006 -0.000013 -5.482490 0.339402 -64.566900 11.754300 -0.000000 0.000003 -0.000054 -0.000607 -16.601100 -2.192510 6.469440 -0.000001 175.543000 23.204900 177.338000 -39.081100 -0.002282 -0.040193 0.038518 -0.082383 23.137200 -40.985400 0.000008 0.000006 0.717705 2.716830 -64.964000 -11.754300 -0.000006 -0.000006 -0.006008 -0.070909 -19.459000
0.000000 0.000000 0.000000 0.000000 0.000000 -0.000000 -1.321060 91.967200 -0.712328 88.112100 -1.534060 3.574550 15.735700 0.000005 -0.000001 70.769800 86.345100 -67.778800 8.984550 -0.406207 -0.000000 -0.788285 -2.630190 5.962180 16.377300 -0.000001 -0.000001 1.302180 0.521373 -3.505320 6.456720 -0.000001 -0.000000 1.377910 0.237152 -1.609130 12.994200 -0.242716 4.980390 -84.332600 -11.033400 -62.591300 5.348090 -0.000007 -0.000001 -53.011200 -56.702200 -85.258300 24.328600 0.000019 0.000005 -5.690520 -4.175160 -53.846700 22.291600 -0.000001 0.000005 19.335000 5.672110 -17.725700 12.994500 -0.242716 -4.980390 91.106500 -3.285080 -71.372800 -5.348130 -0.000001 -0.000004 -69.844700 79.197200 20.640400 -24.328900 0.000322 -0.000009 23.094100 2.625750 -83.868800 -22.291500 -0.000108 -0.000004 47.065900 5.675160 -23.947000 -2.192480 -6.469440 -0.000000 -170.244000 -18.273500 -3.376510 39.081100 -0.000007 -0.000012 -0.136297 0.313505 23.497200 40.985400 -0.000006 -0.000013 -5.482860 0.300342 -64.544400 11.754300 -0.000000 0.000003 -0.000060 -0.000666 -16.603400 -2.192510 6.469440 -0.000001 175.633000 23.126700 177.285000 -39.081100 -0.002282 -0.040193 0.038934 -0.083483 23.105900 -40.985400 0.000008 0.000006 0.820173 2.711960 -64.927200 -11.754300 -0.000006 -0.000006 -0.005805 -0.069058 -19.383500
0.000000 0.000000 0.000000 0.000000 0.000000 -0.000000 -1.340800 91.973100 -0.783323 88.109700 -1.600850 3.577600 15.735700 0.000005 -0.000001 71.005600 86.334800 -68.038500 8.984550 -0.406207 -0.000000 -0.760334 -2.605940 5.914910 16.377300 -0.000001 -0.000001 1.352800 0.520600 -3.521910 6.456720 -0.000001 -0.000000 1.363970 0.234087 -1.580260 12.994200 -0.242716 4.980390 -84.329400 -11.026000 -62.562400 5.348090 -0.000007 -0.000001 -52.794400 -56.770700 -85.046100 24.328600 0.000019 0.000005 -5.773120 -4.219430 -53.955100 22.291600 -0.000001 0.000005 19.405900 5.672070 -17.719600 12.994500 -0.242716 -4.980390 91.072100 -3.169830 -71.301600 -5.348130 -0.000001 -0.000004 -69.912500 79.016100 20.794400 -24.328900 0.000322 -0.000009 22.964000 2.600930 -83.888200 -22.291500 -0.000108 -0.000004 46.957100 5.674440 -24.089400 -2.192480 -6.469440 -0.000000 -170.242000 -18.322500 -3.416210 39.081100 -0.000007 -0.000012 -0.135516 0.311818 23.490000 40.985400 -0.000006 -0.000013 -5.492180 0.230885 -64.486400 11.754300 -0.000000 0.000003 -0.000059 -0.000656 -16.603000 -2.192510 6.469440 -0.000001 175.674000 23.052800 177.247000 -39.081100 -0.002282 -0.040193 0.037880 -0.081212 23.054900 -40.985400 0.000008 0.000006 0.773738 2.717570 -64.887600 -11.754300 -0.000006 -0.000006 -0.005783 -0.068854 -19.375200
0.000000 0.000000 0.000000 0.000000 0.000000 -0.000000 -1.360810 91.967200 -0.851639 88.107000 -1.633050 3.598230 15.735700 0.000005 -0.000001 70.771300 86.320500 -67.818800 8.984550 -0.406207 -0.000000 -0.742541 -2.642150 5.885950 16.377300 -0.000001 -0.000001 1.402480 0.567844 -3.539580 6.456720 -0.000001 -0.000000 1.428970 0.277249 -1.586060 12.994200 -0.242716 4.980390 -84.332500 -10.997700 -62.516000 5.348090 -0.000007 -0.000001 -52.574800 -56.809300 -84.770100 24.328600 0.000019 0.000005 -5.633120 -4.093840 -54.103700 22.291600 -0.000001 0.000005 19.316800 5.671760 -17.665700 12.994500 -0.242716 -4.980390 91.043800 -3.068680 -71.204500 -5.348130 -0.000001 -0.000004 -69.557300 78.838400 20.550600 -24.328900 0.000322 -0.000009 23.025100 2.583690 -83.946200 -22.291500 -0.000108 -0.000004 46.741600 5.673760 -24.219700 -2.192480 -6.469440 -0.000000 -170.223000 -18.290000 -3.453530 39.081100 -0.000007 -0.000012 -0.137431 0.315517 23.536800 40.985400 -0.000006 -0.000013 -5.502810 0.231723 -64.473800 11.754300 -0.000000 0.000003 -0.000058 -0.000644 -16.602500 -2.192510 6.469440 -0.000001 175.703000 22.996400 177.228000 -39.081100 -0.002282 -0.040193 0.037796 -0.080978 23.064200 -40.985400 0.000008 0.000006 0.771404 2.726400 -64.920200 -11.754300 -0.000006 -0.000006 -0.006000 -0.070832 -19.455800
0.000000 0.000000 0.000000 0.000000 0.000000 -0.000000 -1.393620 91.961700 -0.885320 88.082000 -1.683750 3.658450 15.735700 0.000005 -0.000001 70.753000 86.293400 -67.803000 8.984550 -0.406207 -0.000000 -0.691631 -2.660760 5.881970 16.377300 -0.000001 -0.000001 1.475180 0.574778 -3.562900 6.456720 -0.000001 -0.000000 1.476950 0.339093 -1.620610 12.994200 -0.242716 4.980390 -84.347500 -10.970300 -62.520700 5.348090 -0.000007 -0.000001 -52.232300 -56.830000 -84.316400 24.328600 0.000019 0.000005 -5.673230 -4.095760 -54.285000 22.291600 -0.000001 0.000005 19.351500 5.671100 -17.557000 12.994500 -0.242716 -4.980390 91.020700 -2.986780 -71.123100 -5.348130 -0.000001 -0.000004 -69.116700 78.657000 20.207500 -24.328900 0.000322 -0.000009 23.070700 2.554560 -84.027100 -22.291500 -0.000108 -0.000004 46.514800 5.673510 -24.265400 -2.192480 -6.469440 -0.000000 -170.161000 -18.309900 -3.436040 39.081100 -0.000007 -0.000012 -0.138250 0.316556 23.592500 40.985400 -0.000006 -0.000013 -5.527210 0.185726 -64.472300 11.754300 -0.000000 0.000003 -0.000049 -0.000560 -16.599300 -2.192510 6.469440 -0.000001 175.751000 22.939600 177.212000 -39.081100 -0.002282 -0.040193 0.038564 -0.082463 23.143800 -40.985400 0.000008 0.000006 0.833946 2.687810 -64.924600 -11.754300 -0.000006 -0.000006 -0.006054 -0.071322 -19.475800
0.000000 0.000000 0.000000 0.000000 0.000000 -0.000000 -1.424030 91.956700 -0.933193 88.068100 -1.699740 3.686670 15.735700 0.000005 -0.000001 70.498700 86.269900 -67.556300 8.984550 -0.406207 -0.000000 -0.657349 -2.706000 5.867220 16.377300 -0.000001 -0.000001 1.533620 0.568186 -3.551910 6.456720 -0.000001 -0.000000 1.502550 0.425452 -1.688270 12.994200 -0.242716 4.980390 -84.356000 -10.943000 -62.498500 5.348090 -0.000007 -0.000001 -51.929900 -56.788300 -83.859800 24.328600 0.000019 0.000005 -5.813520 -4.172740 -54.448000 22.291600 -0.000001 0.000005 19.171300 5.671870 -17.684400 12.994500 -0.242716 -4.980390 90.998800 -2.904610 -71.013700 -5.348130 -0.000001 -0.000004 -68.405400 78.504600 19.584600 -24.328900 0.000322 -0.000009 23.131800 2.535700 -84.088200 -22.291500 -0.000108 -0.000004 46.188500 5.673090 -24.341300 -2.192480 -6.469440 -0.000000 -170.145000 -18.228000 -3.473210 39.081100 -0.000007 -0.000012 -0.138205 0.315607 23.648800 40.985400 -0.000006 -0.000013 -5.554530 0.081532 -64.470400 11.754300 -0.000000 0.000003 -0.000050 -0.000567 -16.599600 -2.192510 6.469440 -0.000001 175.782000 22.931400 177.199000 -39.081100 -0.002282 -0.040193 0.038110 -0.081287 23.173300 -40.985400 0.000008 0.000006 0.866742 2.716710 -64.944400 -11.754300 -0.000006 -0.000006 -0.005965 -0.070521 -19.443200
